# xmcd
#
# Track frame offsets:
#	150
#	17275
#	32493
#	49618
#	66708
#	81517
#	94103
#	109435
#	124798
#	139880
#	156386
#	170731
#	183738
#	193569
#
# Disc length: 2822 seconds
#
# Revision: 1
# Processed by: cddbd v1.5.2PL0 Copyright (c) Steve Scherf et al.
# Submitted via: audiograbber 1.83.01
#
DISCID=cb0b040e
DTITLE=Ricardo e Rangel - De uma chance pra nois dois
DYEAR=1900
DGENRE=Country
TTITLE0=Crises de amor
TTITLE1=Amor nao e jogo de azar
TTITLE2=De gole em gole
TTITLE3=Ciumento demais
TTITLE4=Ela nao me quer
TTITLE5=Dois canalhas
TTITLE6=Amor de aparencia
TTITLE7=De uma chance pra nois dois
TTITLE8=Doce paixao
TTITLE9=Anjo
TTITLE10=Pra que chorar assim
TTITLE11=Mundo dos espertos
TTITLE12=Dona encrenca
TTITLE13=Poutporri_Vestido de seda e Vou beber de novo
EXTD=
EXTT0=
EXTT1=
EXTT2=
EXTT3=
EXTT4=
EXTT5=
EXTT6=
EXTT7=
EXTT8=
EXTT9=
EXTT10=
EXTT11=
EXTT12=
EXTT13=
PLAYORDER=
